<svg xmlns="http://www.w3.org/2000/svg" viewBox="0 0 800 800" width="800" height="800"><rect width="800" height="800" fill="#e9d9bd"/><circle cx="400" cy="400" r="288" fill="#2b2118" opacity="0.14" transform="translate(14,22)"/><circle cx="400" cy="400" r="288" fill="#f8f2e6"/><circle cx="400" cy="400" r="231.99999999999997" fill="#fffaf0"/><circle cx="400" cy="400" r="264" fill="none" stroke="#d9c7a2" stroke-width="3"/><ellipse cx="441.8" cy="400" rx="34" ry="20" fill="#3f5a36" transform="rotate(0 441.8 400)"/><ellipse cx="441.8" cy="400" rx="30" ry="8" fill="#5f8a4f" opacity="0.6" transform="rotate(0 441.8 400)"/><ellipse cx="432" cy="426.8" rx="34" ry="20" fill="#3f5a36" transform="rotate(39.8 432 426.8)"/><ellipse cx="432" cy="426.8" rx="30" ry="8" fill="#5f8a4f" opacity="0.6" transform="rotate(39.8 432 426.8)"/><ellipse cx="407.3" cy="441.1" rx="34" ry="20" fill="#3f5a36" transform="rotate(79.6 407.3 441.1)"/><ellipse cx="407.3" cy="441.1" rx="30" ry="8" fill="#5f8a4f" opacity="0.6" transform="rotate(79.6 407.3 441.1)"/><ellipse cx="336.2" cy="510.5" rx="34" ry="20" fill="#3f5a36" transform="rotate(119.4 336.2 510.5)"/><ellipse cx="336.2" cy="510.5" rx="30" ry="8" fill="#5f8a4f" opacity="0.6" transform="rotate(119.4 336.2 510.5)"/><ellipse cx="280.1" cy="443.6" rx="34" ry="20" fill="#3f5a36" transform="rotate(159.2 280.1 443.6)"/><ellipse cx="280.1" cy="443.6" rx="30" ry="8" fill="#5f8a4f" opacity="0.6" transform="rotate(159.2 280.1 443.6)"/><ellipse cx="280.1" cy="356.4" rx="34" ry="20" fill="#3f5a36" transform="rotate(199 280.1 356.4)"/><ellipse cx="280.1" cy="356.4" rx="30" ry="8" fill="#5f8a4f" opacity="0.6" transform="rotate(199 280.1 356.4)"/><ellipse cx="336.2" cy="289.5" rx="34" ry="20" fill="#3f5a36" transform="rotate(238.8 336.2 289.5)"/><ellipse cx="336.2" cy="289.5" rx="30" ry="8" fill="#5f8a4f" opacity="0.6" transform="rotate(238.8 336.2 289.5)"/><ellipse cx="422.2" cy="274.3" rx="34" ry="20" fill="#3f5a36" transform="rotate(278.6 422.2 274.3)"/><ellipse cx="422.2" cy="274.3" rx="30" ry="8" fill="#5f8a4f" opacity="0.6" transform="rotate(278.6 422.2 274.3)"/><ellipse cx="497.7" cy="318" rx="34" ry="20" fill="#3f5a36" transform="rotate(318.3 497.7 318)"/><ellipse cx="497.7" cy="318" rx="30" ry="8" fill="#5f8a4f" opacity="0.6" transform="rotate(318.3 497.7 318)"/><circle cx="423.6" cy="373.3" r="5.8" fill="#c0392b" opacity="1"/><circle cx="491.1" cy="366.5" r="5" fill="#f5e6c4" opacity="1"/><circle cx="543.4" cy="326.9" r="4.2" fill="#c0392b" opacity="1"/><circle cx="418.6" cy="432.2" r="5" fill="#f5e6c4" opacity="1"/><circle cx="507.2" cy="364.5" r="6.3" fill="#c0392b" opacity="1"/><circle cx="392.1" cy="224.9" r="4.1" fill="#f5e6c4" opacity="1"/><circle cx="400" cy="277.8" r="5.8" fill="#c0392b" opacity="1"/><circle cx="345.2" cy="391" r="4.5" fill="#f5e6c4" opacity="1"/><circle cx="444.1" cy="433.7" r="5" fill="#c0392b" opacity="1"/><circle cx="219.1" cy="392.1" r="4.4" fill="#f5e6c4" opacity="1"/><circle cx="451.6" cy="310.6" r="5.2" fill="#c0392b" opacity="1"/><circle cx="299.3" cy="465.9" r="6.4" fill="#f5e6c4" opacity="1"/><filter id="g" x="0" y="0" width="100%" height="100%"><feTurbulence type="fractalNoise" baseFrequency="0.85" numOctaves="2" stitchTiles="stitch"/><feColorMatrix type="saturate" values="0"/><feComponentTransfer><feFuncA type="table" tableValues="0 0.05"/></feComponentTransfer></filter><rect width="800" height="800" filter="url(#g)"/></svg>