<svg xmlns="http://www.w3.org/2000/svg" viewBox="0 0 800 800" width="800" height="800"><rect width="800" height="800" fill="#e9d9bd"/><circle cx="400" cy="400" r="288" fill="#2b2118" opacity="0.14" transform="translate(14,22)"/><circle cx="400" cy="400" r="288" fill="#f8f2e6"/><circle cx="400" cy="400" r="231.99999999999997" fill="#fffaf0"/><circle cx="400" cy="400" r="264" fill="none" stroke="#d9c7a2" stroke-width="3"/><path d="M284 237.60000000000002 L318.8 562.4 L481.2 562.4 L516 237.60000000000002 Z" fill="#b8541f"/><path d="M284 237.60000000000002 L301.40000000000003 376.8 Q400 411.6 498.59999999999997 376.8 L516 237.60000000000002 Z" fill="#e07a2f"/><ellipse cx="400" cy="237.60000000000002" rx="115.99999999999999" ry="14" fill="#f8f2e6" opacity="0.9"/><path d="M360 202.80000000000004 q 20 -40 0 -80 q -20 -40 0 -80" stroke="#8a7a68" stroke-width="6" fill="none" opacity="0.5" stroke-linecap="round"/><path d="M400 202.80000000000004 q 20 -40 0 -80 q -20 -40 0 -80" stroke="#8a7a68" stroke-width="6" fill="none" opacity="0.5" stroke-linecap="round"/><path d="M440 202.80000000000004 q 20 -40 0 -80 q -20 -40 0 -80" stroke="#8a7a68" stroke-width="6" fill="none" opacity="0.5" stroke-linecap="round"/><rect x="249.20000000000002" y="562.4" width="301.59999999999997" height="18" rx="9" fill="#d9c7a2"/><filter id="g" x="0" y="0" width="100%" height="100%"><feTurbulence type="fractalNoise" baseFrequency="0.85" numOctaves="2" stitchTiles="stitch"/><feColorMatrix type="saturate" values="0"/><feComponentTransfer><feFuncA type="table" tableValues="0 0.05"/></feComponentTransfer></filter><rect width="800" height="800" filter="url(#g)"/></svg>