<svg xmlns="http://www.w3.org/2000/svg" viewBox="0 0 1600 1000" width="1600" height="1000"><linearGradient id="sky" x1="0" y1="0" x2="0" y2="1"><stop offset="0" stop-color="#fde68a"/><stop offset="1" stop-color="#fff7ed"/></linearGradient><rect width="1600" height="1000" fill="url(#sky)"/><rect y="740" width="1600" height="260" fill="#d6ccb8"/><rect x="224.00000000000003" y="400" width="384" height="340" fill="#c2410c"/><polygon points="224.00000000000003,400 416,280 608,400" fill="#3f2a1e"/><rect x="296.2" y="472" width="86" height="96" rx="3" fill="#bfdbfe"/><rect x="449.8" y="472" width="86" height="96" rx="3" fill="#bfdbfe"/><rect x="377.6" y="620" width="76.80000000000001" height="120" fill="#3f2a1e"/><rect x="624" y="400" width="384" height="340" fill="#9a3412"/><polygon points="624,400 816,280 1008,400" fill="#3f2a1e"/><rect x="696.2" y="472" width="86" height="96" rx="3" fill="#bfdbfe"/><rect x="849.8" y="472" width="86" height="96" rx="3" fill="#1f2933"/><rect x="777.6" y="620" width="76.80000000000001" height="120" fill="#3f2a1e"/><rect x="1024" y="400" width="384" height="340" fill="#ea580c"/><polygon points="1024,400 1216,280 1408,400" fill="#3f2a1e"/><rect x="1096.2" y="472" width="86" height="96" rx="3" fill="#bfdbfe"/><rect x="1249.8" y="472" width="86" height="96" rx="3" fill="#bfdbfe"/><rect x="1177.6" y="620" width="76.80000000000001" height="120" fill="#3f2a1e"/><rect x="92" y="700" width="8" height="40" fill="#5b3f2a"/><circle cx="96" cy="680" r="34" fill="#3f6b3a"/><circle cx="74" cy="698" r="24" fill="#3f6b3a"/><circle cx="118" cy="696" r="26" fill="#3f6b3a"/><filter id="g" x="0" y="0" width="100%" height="100%"><feTurbulence type="fractalNoise" baseFrequency="0.85" numOctaves="2" stitchTiles="stitch"/><feColorMatrix type="saturate" values="0"/><feComponentTransfer><feFuncA type="table" tableValues="0 0.04"/></feComponentTransfer></filter><rect width="1600" height="1000" filter="url(#g)"/></svg>