<svg xmlns="http://www.w3.org/2000/svg" viewBox="0 0 1600 1000" width="1600" height="1000"><linearGradient id="sky" x1="0" y1="0" x2="0" y2="1"><stop offset="0" stop-color="#f1f5f9"/><stop offset="1" stop-color="#cbd5e1"/></linearGradient><rect width="1600" height="1000" fill="url(#sky)"/><rect y="760" width="1600" height="240" fill="#475569"/><rect x="288" y="300" width="1024" height="460" fill="#e2e8f0"/><rect x="288" y="300" width="1024" height="50" fill="#141414"/><rect x="362.2" y="390" width="107.5" height="60" rx="3" fill="#1f2933"/><rect x="362.2" y="490" width="107.5" height="60" rx="3" fill="#94a3b8"/><rect x="362.2" y="590" width="107.5" height="60" rx="3" fill="#1f2933"/><rect x="554.2" y="390" width="107.5" height="60" rx="3" fill="#1f2933"/><rect x="554.2" y="490" width="107.5" height="60" rx="3" fill="#1f2933"/><rect x="554.2" y="590" width="107.5" height="60" rx="3" fill="#94a3b8"/><rect x="746.2" y="390" width="107.5" height="60" rx="3" fill="#94a3b8"/><rect x="746.2" y="490" width="107.5" height="60" rx="3" fill="#1f2933"/><rect x="746.2" y="590" width="107.5" height="60" rx="3" fill="#94a3b8"/><rect x="938.2" y="390" width="107.5" height="60" rx="3" fill="#94a3b8"/><rect x="938.2" y="490" width="107.5" height="60" rx="3" fill="#1f2933"/><rect x="938.2" y="590" width="107.5" height="60" rx="3" fill="#94a3b8"/><rect x="1130.2" y="390" width="107.5" height="60" rx="3" fill="#94a3b8"/><rect x="1130.2" y="490" width="107.5" height="60" rx="3" fill="#94a3b8"/><rect x="1130.2" y="590" width="107.5" height="60" rx="3" fill="#94a3b8"/><rect x="704" y="620" width="192" height="140" fill="#141414"/><rect x="320" y="260" width="320" height="40" fill="#c8f542"/><filter id="g" x="0" y="0" width="100%" height="100%"><feTurbulence type="fractalNoise" baseFrequency="0.85" numOctaves="2" stitchTiles="stitch"/><feColorMatrix type="saturate" values="0"/><feComponentTransfer><feFuncA type="table" tableValues="0 0.04"/></feComponentTransfer></filter><rect width="1600" height="1000" filter="url(#g)"/></svg>