<svg xmlns="http://www.w3.org/2000/svg" width="1600" height="1000" viewBox="0 0 1600 1000">
<defs>
  <linearGradient id="gdash" x1="0" y1="0" x2="1" y2="1">
    <stop offset="0%" stop-color="#8b5cf6"/><stop offset="100%" stop-color="#22d3ee"/>
  </linearGradient>
  <radialGradient id="glowdash" cx="50%" cy="50%" r="50%">
    <stop offset="0%" stop-color="#8b5cf6" stop-opacity="0.55"/><stop offset="100%" stop-color="#8b5cf6" stop-opacity="0"/>
  </radialGradient>
  <filter id="shdash" x="-10%" y="-10%" width="120%" height="130%"><feDropShadow dx="0" dy="12" stdDeviation="18" flood-color="#000" flood-opacity="0.25"/></filter>
</defs><rect x="0" y="0" width="1600" height="1000" rx="0" fill="#0a0a0f" /><rect x="0" y="0" width="260" height="1000" rx="0" fill="#13131c" /><rect x="40" y="36" width="30" height="30" rx="8" fill="url(#gdash)" /><text x="84" y="59" font-family="Inter, Segoe UI, Arial, sans-serif" font-size="22" font-weight="700" fill="#e5e7eb" text-anchor="start">Nova</text><rect x="28" y="120" width="204" height="42" rx="12" fill="none" /><circle cx="54" cy="141" r="8" fill="#4b5563"/><rect x="76" y="136" width="90" height="10" rx="5" fill="#6b7280" /><rect x="28" y="178" width="204" height="42" rx="12" fill="#2a2a3a" /><circle cx="54" cy="199" r="8" fill="#8b5cf6"/><rect x="76" y="194" width="108" height="10" rx="5" fill="#e5e7eb" /><rect x="28" y="236" width="204" height="42" rx="12" fill="none" /><circle cx="54" cy="257" r="8" fill="#4b5563"/><rect x="76" y="252" width="126" height="10" rx="5" fill="#6b7280" /><rect x="28" y="294" width="204" height="42" rx="12" fill="none" /><circle cx="54" cy="315" r="8" fill="#4b5563"/><rect x="76" y="310" width="144" height="10" rx="5" fill="#6b7280" /><rect x="28" y="352" width="204" height="42" rx="12" fill="none" /><circle cx="54" cy="373" r="8" fill="#4b5563"/><rect x="76" y="368" width="90" height="10" rx="5" fill="#6b7280" /><rect x="28" y="410" width="204" height="42" rx="12" fill="none" /><circle cx="54" cy="431" r="8" fill="#4b5563"/><rect x="76" y="426" width="108" height="10" rx="5" fill="#6b7280" /><rect x="28" y="468" width="204" height="42" rx="12" fill="none" /><circle cx="54" cy="489" r="8" fill="#4b5563"/><rect x="76" y="484" width="126" height="10" rx="5" fill="#6b7280" /><rect x="28" y="526" width="204" height="42" rx="12" fill="none" /><circle cx="54" cy="547" r="8" fill="#4b5563"/><rect x="76" y="542" width="144" height="10" rx="5" fill="#6b7280" /><text x="310" y="78" font-family="Inter, Segoe UI, Arial, sans-serif" font-size="34" font-weight="700" fill="#e5e7eb" text-anchor="start">Overview</text><rect x="1200" y="42" width="140" height="40" rx="20" fill="#13131c" /><rect x="1360" y="42" width="180" height="40" rx="20" fill="url(#gdash)" /><rect x="310" y="120" width="280" height="130" rx="18" fill="#13131c" /><text x="334" y="158" font-family="Inter, Segoe UI, Arial, sans-serif" font-size="16" font-weight="500" fill="#9ca3af" text-anchor="start">Revenue</text><text x="334" y="210" font-family="Inter, Segoe UI, Arial, sans-serif" font-size="34" font-weight="800" fill="#e5e7eb" text-anchor="start">$84.2k</text><rect x="334" y="226" width="60" height="6" rx="3" fill="#8b5cf6" /><rect x="620" y="120" width="280" height="130" rx="18" fill="#13131c" /><text x="644" y="158" font-family="Inter, Segoe UI, Arial, sans-serif" font-size="16" font-weight="500" fill="#9ca3af" text-anchor="start">Users</text><text x="644" y="210" font-family="Inter, Segoe UI, Arial, sans-serif" font-size="34" font-weight="800" fill="#e5e7eb" text-anchor="start">12,480</text><rect x="644" y="226" width="80" height="6" rx="3" fill="#8b5cf6" /><rect x="930" y="120" width="280" height="130" rx="18" fill="#13131c" /><text x="954" y="158" font-family="Inter, Segoe UI, Arial, sans-serif" font-size="16" font-weight="500" fill="#9ca3af" text-anchor="start">Orders</text><text x="954" y="210" font-family="Inter, Segoe UI, Arial, sans-serif" font-size="34" font-weight="800" fill="#e5e7eb" text-anchor="start">3,204</text><rect x="954" y="226" width="100" height="6" rx="3" fill="#8b5cf6" /><rect x="1240" y="120" width="280" height="130" rx="18" fill="#13131c" /><text x="1264" y="158" font-family="Inter, Segoe UI, Arial, sans-serif" font-size="16" font-weight="500" fill="#9ca3af" text-anchor="start">Growth</text><text x="1264" y="210" font-family="Inter, Segoe UI, Arial, sans-serif" font-size="34" font-weight="800" fill="#e5e7eb" text-anchor="start">+24%</text><rect x="1264" y="226" width="120" height="6" rx="3" fill="#22d3ee" /><rect x="310" y="290" width="830" height="400" rx="20" fill="#13131c" /><text x="340" y="330" font-family="Inter, Segoe UI, Arial, sans-serif" font-size="18" font-weight="600" fill="#e5e7eb" text-anchor="start">Revenue over time</text><rect x="350" y="600" width="26" height="60" rx="6" fill="#2a2a3a" /><rect x="393" y="412.001541689404" width="26" height="247.99845831059602" rx="6" fill="#2a2a3a" /><rect x="436" y="366.2765685892332" width="26" height="293.7234314107668" rx="6" fill="#2a2a3a" /><rect x="479" y="497.42882874388084" width="26" height="162.57117125611916" rx="6" fill="#2a2a3a" /><rect x="522" y="493.79509360923544" width="26" height="166.2049063907646" rx="6" fill="#2a2a3a" /><rect x="565" y="365.3927717603767" width="26" height="294.6072282396233" rx="6" fill="#2a2a3a" /><rect x="608" y="414.5365229865631" width="26" height="245.46347701343691" rx="6" fill="#2a2a3a" /><rect x="651" y="595.9646638837561" width="26" height="64.03533611624393" rx="6" fill="#2a2a3a" /><rect x="694" y="409.5197126762032" width="26" height="250.48028732379677" rx="6" fill="#2a2a3a" /><rect x="737" y="367.2264453971793" width="26" height="292.7735546028207" rx="6" fill="#2a2a3a" /><rect x="780" y="501.0915635419784" width="26" height="158.90843645802158" rx="6" fill="#2a2a3a" /><rect x="823" y="490.1913854939229" width="26" height="169.80861450607713" rx="6" fill="#2a2a3a" /><rect x="866" y="364.57530478404203" width="26" height="295.42469521595797" rx="6" fill="#2a2a3a" /><rect x="909" y="417.1239398594323" width="26" height="242.8760601405677" rx="6" fill="#2a2a3a" /><rect x="952" y="591.9304686669273" width="26" height="68.0695313330728" rx="6" fill="#2a2a3a" /><rect x="995" y="407.091737627611" width="26" height="252.90826237238903" rx="6" fill="#2a2a3a" /><rect x="1038" y="368.2421336281734" width="26" height="291.7578663718266" rx="6" fill="url(#gdash)" /><rect x="1081" y="504.7822624486531" width="26" height="155.2177375513469" rx="6" fill="#2a2a3a" /><rect x="1170" y="290" width="370" height="400" rx="20" fill="#13131c" /><text x="1200" y="330" font-family="Inter, Segoe UI, Arial, sans-serif" font-size="18" font-weight="600" fill="#e5e7eb" text-anchor="start">Traffic</text><circle cx="1355" cy="500" r="110" fill="none" stroke="#2a2a3a" stroke-width="28"/><circle cx="1355" cy="500" r="110" fill="none" stroke="url(#gdash)" stroke-width="28" stroke-dasharray="480 700" stroke-linecap="round" transform="rotate(-90 1355 500)"/><text x="1355" y="512" font-family="Inter, Segoe UI, Arial, sans-serif" font-size="36" font-weight="800" fill="#e5e7eb" text-anchor="middle">68%</text><rect x="310" y="720" width="1230" height="250" rx="20" fill="#13131c" /><circle cx="350" cy="766" r="12" fill="#8b5cf6"/><rect x="380" y="760" width="180" height="10" rx="5" fill="#e5e7eb" /><rect x="700" y="760" width="120" height="10" rx="5" fill="#6b7280" /><rect x="950" y="760" width="90" height="10" rx="5" fill="#6b7280" /><rect x="1400" y="752" width="90" height="26" rx="13" fill="#065f46" /><circle cx="350" cy="816" r="12" fill="#22d3ee"/><rect x="380" y="810" width="180" height="10" rx="5" fill="#e5e7eb" /><rect x="700" y="810" width="120" height="10" rx="5" fill="#6b7280" /><rect x="950" y="810" width="90" height="10" rx="5" fill="#6b7280" /><rect x="1400" y="802" width="90" height="26" rx="13" fill="#2a2a3a" /><circle cx="350" cy="866" r="12" fill="#8b5cf6"/><rect x="380" y="860" width="180" height="10" rx="5" fill="#e5e7eb" /><rect x="700" y="860" width="120" height="10" rx="5" fill="#6b7280" /><rect x="950" y="860" width="90" height="10" rx="5" fill="#6b7280" /><rect x="1400" y="852" width="90" height="26" rx="13" fill="#2a2a3a" /><circle cx="350" cy="916" r="12" fill="#22d3ee"/><rect x="380" y="910" width="180" height="10" rx="5" fill="#e5e7eb" /><rect x="700" y="910" width="120" height="10" rx="5" fill="#6b7280" /><rect x="950" y="910" width="90" height="10" rx="5" fill="#6b7280" /><rect x="1400" y="902" width="90" height="26" rx="13" fill="#065f46" /></svg>