<svg xmlns="http://www.w3.org/2000/svg" width="1600" height="1000" viewBox="0 0 1600 1000">
<defs>
  <linearGradient id="gshop" x1="0" y1="0" x2="1" y2="1">
    <stop offset="0%" stop-color="#f97316"/><stop offset="100%" stop-color="#fb923c"/>
  </linearGradient>
  <radialGradient id="glowshop" cx="50%" cy="50%" r="50%">
    <stop offset="0%" stop-color="#f97316" stop-opacity="0.55"/><stop offset="100%" stop-color="#f97316" stop-opacity="0"/>
  </radialGradient>
  <filter id="shshop" x="-10%" y="-10%" width="120%" height="130%"><feDropShadow dx="0" dy="12" stdDeviation="18" flood-color="#000" flood-opacity="0.25"/></filter>
</defs><rect x="0" y="0" width="1600" height="1000" rx="0" fill="#0b0f19" /><rect x="0" y="0" width="1600" height="72" rx="0" fill="#111827" /><rect x="56" y="22" width="28" height="28" rx="8" fill="url(#gshop)" /><text x="96" y="46" font-family="Inter, Segoe UI, Arial, sans-serif" font-size="22" font-weight="700" fill="#e5e7eb" text-anchor="start">shop</text><rect x="620" y="32" width="70" height="10" rx="5" fill="#f97316" /><rect x="740" y="32" width="84" height="10" rx="5" fill="#4b5563" /><rect x="860" y="32" width="98" height="10" rx="5" fill="#4b5563" /><rect x="980" y="32" width="70" height="10" rx="5" fill="#4b5563" /><rect x="1100" y="32" width="84" height="10" rx="5" fill="#4b5563" /><rect x="1380" y="20" width="164" height="34" rx="17" fill="url(#gshop)" /><circle cx="1250" cy="300" r="320" fill="url(#glowshop)"/><text x="90" y="210" font-family="Inter, Segoe UI, Arial, sans-serif" font-size="84" font-weight="800" fill="#e5e7eb" text-anchor="start">Summer</text><text x="90" y="300" font-family="Inter, Segoe UI, Arial, sans-serif" font-size="84" font-weight="800" fill="url(#gshop)" text-anchor="start">Collection</text><rect x="90" y="340" width="420" height="12" rx="5" fill="#6b7280" /><rect x="90" y="366" width="360" height="12" rx="5" fill="#6b7280" /><rect x="90" y="410" width="190" height="56" rx="28" fill="url(#gshop)" /><rect x="300" y="410" width="170" height="56" rx="28" fill="none" stroke="#374151" stroke-width="2"/><rect x="900" y="120" width="560" height="340" rx="24" fill="#111827" filter="url(#shshop)"/><rect x="940" y="160" width="480" height="220" rx="18" fill="url(#gshop)" /><rect x="940" y="410" width="200" height="12" rx="5" fill="#e5e7eb" /><rect x="1290" y="400" width="130" height="36" rx="18" fill="#f97316" /><rect x="90" y="560" width="330" height="380" rx="14" fill="#111827" filter="url(#shshop)"/><rect x="90" y="560" width="330" height="235.6" rx="14" fill="url(#gshop)" opacity="0.35"/><rect x="108" y="819.6" width="198" height="12" rx="6" fill="#e5e7eb" /><rect x="108" y="843.6" width="115.49999999999999" height="9" rx="4" fill="#6b7280" /><rect x="338" y="898" width="64" height="26" rx="13" fill="#f97316" /><rect x="452" y="560" width="330" height="380" rx="14" fill="#111827" filter="url(#shshop)"/><rect x="452" y="560" width="330" height="235.6" rx="14" fill="url(#gshop)" opacity="0.55"/><rect x="470" y="819.6" width="198" height="12" rx="6" fill="#e5e7eb" /><rect x="470" y="843.6" width="115.49999999999999" height="9" rx="4" fill="#6b7280" /><rect x="700" y="898" width="64" height="26" rx="13" fill="#f97316" /><rect x="814" y="560" width="330" height="380" rx="14" fill="#111827" filter="url(#shshop)"/><rect x="814" y="560" width="330" height="235.6" rx="14" fill="url(#gshop)" opacity="0.75"/><rect x="832" y="819.6" width="198" height="12" rx="6" fill="#e5e7eb" /><rect x="832" y="843.6" width="115.49999999999999" height="9" rx="4" fill="#6b7280" /><rect x="1062" y="898" width="64" height="26" rx="13" fill="#f97316" /><rect x="1176" y="560" width="330" height="380" rx="14" fill="#111827" filter="url(#shshop)"/><rect x="1176" y="560" width="330" height="235.6" rx="14" fill="url(#gshop)" opacity="0.35"/><rect x="1194" y="819.6" width="198" height="12" rx="6" fill="#e5e7eb" /><rect x="1194" y="843.6" width="115.49999999999999" height="9" rx="4" fill="#6b7280" /><rect x="1424" y="898" width="64" height="26" rx="13" fill="#f97316" /></svg>