<svg xmlns="http://www.w3.org/2000/svg" width="1600" height="1000" viewBox="0 0 1600 1000">
<defs>
  <linearGradient id="glaw" x1="0" y1="0" x2="1" y2="1">
    <stop offset="0%" stop-color="#c9a227"/><stop offset="100%" stop-color="#e8cf7a"/>
  </linearGradient>
  <radialGradient id="glowlaw" cx="50%" cy="50%" r="50%">
    <stop offset="0%" stop-color="#c9a227" stop-opacity="0.55"/><stop offset="100%" stop-color="#c9a227" stop-opacity="0"/>
  </radialGradient>
  <filter id="shlaw" x="-10%" y="-10%" width="120%" height="130%"><feDropShadow dx="0" dy="12" stdDeviation="18" flood-color="#000" flood-opacity="0.25"/></filter>
</defs><rect x="0" y="0" width="1600" height="1000" rx="0" fill="#0b1526" /><rect x="0" y="0" width="1600" height="76" rx="0" fill="#12203a" /><rect x="1508" y="22" width="32" height="32" rx="9" fill="url(#glaw)" /><text x="1494" y="49" direction="rtl" text-anchor="start" font-family="Segoe UI, Tahoma, Noto Sans Arabic, Arial, sans-serif" font-size="22" font-weight="700" fill="#f5eedc" >مكتب الرافدين للمحاماة</text><text x="1180" y="47" direction="rtl" text-anchor="start" font-family="Segoe UI, Tahoma, Noto Sans Arabic, Arial, sans-serif" font-size="17" font-weight="700" fill="#c9a227" >الرئيسية</text><text x="1038" y="47" direction="rtl" text-anchor="start" font-family="Segoe UI, Tahoma, Noto Sans Arabic, Arial, sans-serif" font-size="17" font-weight="500" fill="#9aa8c2" >مجالات الممارسة</text><text x="868" y="47" direction="rtl" text-anchor="start" font-family="Segoe UI, Tahoma, Noto Sans Arabic, Arial, sans-serif" font-size="17" font-weight="500" fill="#9aa8c2" >فريق المحامين</text><text x="706" y="47" direction="rtl" text-anchor="start" font-family="Segoe UI, Tahoma, Noto Sans Arabic, Arial, sans-serif" font-size="17" font-weight="500" fill="#9aa8c2" >المقالات</text><text x="564" y="47" direction="rtl" text-anchor="start" font-family="Segoe UI, Tahoma, Noto Sans Arabic, Arial, sans-serif" font-size="17" font-weight="500" fill="#9aa8c2" >اتصل بنا</text><rect x="56" y="20" width="176" height="38" rx="19" fill="url(#glaw)" /><text x="144" y="45" direction="rtl" text-anchor="middle" font-family="Segoe UI, Tahoma, Noto Sans Arabic, Arial, sans-serif" font-size="15" font-weight="700" fill="#0b1526" >احجز استشارة</text><circle cx="380" cy="420" r="420" fill="url(#glowlaw)"/><rect x="1150" y="150" width="6" height="150" rx="3" fill="url(#glaw)" /><text x="1120" y="200" direction="rtl" text-anchor="start" font-family="Segoe UI, Tahoma, Noto Sans Arabic, Arial, sans-serif" font-size="50" font-weight="800" fill="#f5eedc" >خبرة قانونية تثق بها</text><text x="1120" y="268" direction="rtl" text-anchor="start" font-family="Segoe UI, Tahoma, Noto Sans Arabic, Arial, sans-serif" font-size="50" font-weight="800" fill="url(#glaw)" >في بغداد وعموم العراق</text><text x="1120" y="330" direction="rtl" text-anchor="start" font-family="Segoe UI, Tahoma, Noto Sans Arabic, Arial, sans-serif" font-size="17" font-weight="500" fill="#9aa8c2" >مكتب محاماة واستشارات قانونية يخدم الشركات والأفراد</text><text x="1120" y="360" direction="rtl" text-anchor="start" font-family="Segoe UI, Tahoma, Noto Sans Arabic, Arial, sans-serif" font-size="17" font-weight="500" fill="#9aa8c2" >في القانون التجاري والعقاري والشركات والتحكيم منذ 2009.</text><rect x="920" y="410" width="200" height="56" rx="28" fill="url(#glaw)" /><text x="1020" y="446" direction="rtl" text-anchor="middle" font-family="Segoe UI, Tahoma, Noto Sans Arabic, Arial, sans-serif" font-size="16" font-weight="700" fill="#0b1526" >احجز استشارة مجانية</text><rect x="700" y="410" width="200" height="56" rx="28" fill="none" stroke="#c9a227" stroke-width="2"/><text x="800" y="446" direction="rtl" text-anchor="middle" font-family="Segoe UI, Tahoma, Noto Sans Arabic, Arial, sans-serif" font-size="16" font-weight="700" fill="#e8cf7a" >تعرّف على فريقنا</text><rect x="90" y="130" width="480" height="360" rx="24" fill="#12203a" filter="url(#shlaw)"/><rect x="110" y="150" width="440" height="320" rx="18" fill="url(#glaw)" opacity="0.16"/><path d="M330 200 V420 M220 250 H440 M220 250 L180 330 H260 Z M440 250 L400 330 H480 Z M270 420 H390" fill="none" stroke="#e8cf7a" stroke-width="6" stroke-linecap="round" stroke-linejoin="round"/><rect x="120" y="420" width="210" height="46" rx="12" fill="#12203a" /><text x="318" y="450" direction="rtl" text-anchor="start" font-family="Segoe UI, Tahoma, Noto Sans Arabic, Arial, sans-serif" font-size="13" font-weight="700" fill="#e8cf7a" >مسجّل لدى نقابة المحامين</text><text x="1120" y="560" font-family="Segoe UI, Tahoma, Noto Sans Arabic, Arial, sans-serif" font-size="34" font-weight="800" fill="#e8cf7a" text-anchor="end">+15</text><text x="1120" y="588" direction="rtl" text-anchor="start" font-family="Segoe UI, Tahoma, Noto Sans Arabic, Arial, sans-serif" font-size="14" font-weight="500" fill="#9aa8c2" >عاماً من الخبرة</text><text x="850" y="560" font-family="Segoe UI, Tahoma, Noto Sans Arabic, Arial, sans-serif" font-size="34" font-weight="800" fill="#e8cf7a" text-anchor="end">+1,200</text><text x="850" y="588" direction="rtl" text-anchor="start" font-family="Segoe UI, Tahoma, Noto Sans Arabic, Arial, sans-serif" font-size="14" font-weight="500" fill="#9aa8c2" >قضية رابحة</text><text x="580" y="560" font-family="Segoe UI, Tahoma, Noto Sans Arabic, Arial, sans-serif" font-size="34" font-weight="800" fill="#e8cf7a" text-anchor="end">20</text><text x="580" y="588" direction="rtl" text-anchor="start" font-family="Segoe UI, Tahoma, Noto Sans Arabic, Arial, sans-serif" font-size="14" font-weight="500" fill="#9aa8c2" >محامياً ومستشاراً</text><text x="310" y="560" font-family="Segoe UI, Tahoma, Noto Sans Arabic, Arial, sans-serif" font-size="34" font-weight="800" fill="#e8cf7a" text-anchor="end">6</text><text x="310" y="588" direction="rtl" text-anchor="start" font-family="Segoe UI, Tahoma, Noto Sans Arabic, Arial, sans-serif" font-size="14" font-weight="500" fill="#9aa8c2" >محافظات نخدمها</text><text x="1510" y="660" direction="rtl" text-anchor="start" font-family="Segoe UI, Tahoma, Noto Sans Arabic, Arial, sans-serif" font-size="30" font-weight="800" fill="#f5eedc" >مجالات الممارسة</text><text x="1510" y="690" direction="rtl" text-anchor="start" font-family="Segoe UI, Tahoma, Noto Sans Arabic, Arial, sans-serif" font-size="15" font-weight="500" fill="#9aa8c2" >نقدّم خدمات قانونية متكاملة في مختلف المجالات</text><rect x="1238" y="720" width="272" height="220" rx="18" fill="#12203a" stroke="#1f3152" stroke-width="1.5" filter="url(#shlaw)"/><rect x="1436" y="744" width="50" height="50" rx="14" fill="#1f3152" /><text x="1486" y="840" direction="rtl" text-anchor="start" font-family="Segoe UI, Tahoma, Noto Sans Arabic, Arial, sans-serif" font-size="20" font-weight="700" fill="#f5eedc" >القانون التجاري</text><rect x="1262" y="862" width="224" height="8" rx="4" fill="#1f3152" /><rect x="1326" y="882" width="160" height="8" rx="4" fill="#1f3152" /><text x="1486" y="920" direction="rtl" text-anchor="start" font-family="Segoe UI, Tahoma, Noto Sans Arabic, Arial, sans-serif" font-size="13" font-weight="700" fill="#e8cf7a" >اقرأ المزيد ←</text><rect x="942" y="720" width="272" height="220" rx="18" fill="#12203a" stroke="#c9a227" stroke-width="1.5" filter="url(#shlaw)"/><rect x="1140" y="744" width="50" height="50" rx="14" fill="url(#glaw)" /><text x="1190" y="840" direction="rtl" text-anchor="start" font-family="Segoe UI, Tahoma, Noto Sans Arabic, Arial, sans-serif" font-size="20" font-weight="700" fill="#f5eedc" >العقارات والملكية</text><rect x="966" y="862" width="224" height="8" rx="4" fill="#1f3152" /><rect x="1030" y="882" width="160" height="8" rx="4" fill="#1f3152" /><text x="1190" y="920" direction="rtl" text-anchor="start" font-family="Segoe UI, Tahoma, Noto Sans Arabic, Arial, sans-serif" font-size="13" font-weight="700" fill="#e8cf7a" >اقرأ المزيد ←</text><rect x="646" y="720" width="272" height="220" rx="18" fill="#12203a" stroke="#1f3152" stroke-width="1.5" filter="url(#shlaw)"/><rect x="844" y="744" width="50" height="50" rx="14" fill="#1f3152" /><text x="894" y="840" direction="rtl" text-anchor="start" font-family="Segoe UI, Tahoma, Noto Sans Arabic, Arial, sans-serif" font-size="20" font-weight="700" fill="#f5eedc" >قانون الشركات</text><rect x="670" y="862" width="224" height="8" rx="4" fill="#1f3152" /><rect x="734" y="882" width="160" height="8" rx="4" fill="#1f3152" /><text x="894" y="920" direction="rtl" text-anchor="start" font-family="Segoe UI, Tahoma, Noto Sans Arabic, Arial, sans-serif" font-size="13" font-weight="700" fill="#e8cf7a" >اقرأ المزيد ←</text><rect x="350" y="720" width="272" height="220" rx="18" fill="#12203a" stroke="#1f3152" stroke-width="1.5" filter="url(#shlaw)"/><rect x="548" y="744" width="50" height="50" rx="14" fill="#1f3152" /><text x="598" y="840" direction="rtl" text-anchor="start" font-family="Segoe UI, Tahoma, Noto Sans Arabic, Arial, sans-serif" font-size="20" font-weight="700" fill="#f5eedc" >الأحوال الشخصية</text><rect x="374" y="862" width="224" height="8" rx="4" fill="#1f3152" /><rect x="438" y="882" width="160" height="8" rx="4" fill="#1f3152" /><text x="598" y="920" direction="rtl" text-anchor="start" font-family="Segoe UI, Tahoma, Noto Sans Arabic, Arial, sans-serif" font-size="13" font-weight="700" fill="#e8cf7a" >اقرأ المزيد ←</text><rect x="54" y="720" width="272" height="220" rx="18" fill="#12203a" stroke="#1f3152" stroke-width="1.5" filter="url(#shlaw)"/><rect x="252" y="744" width="50" height="50" rx="14" fill="#1f3152" /><text x="302" y="840" direction="rtl" text-anchor="start" font-family="Segoe UI, Tahoma, Noto Sans Arabic, Arial, sans-serif" font-size="20" font-weight="700" fill="#f5eedc" >التحكيم والتقاضي</text><rect x="78" y="862" width="224" height="8" rx="4" fill="#1f3152" /><rect x="142" y="882" width="160" height="8" rx="4" fill="#1f3152" /><text x="302" y="920" direction="rtl" text-anchor="start" font-family="Segoe UI, Tahoma, Noto Sans Arabic, Arial, sans-serif" font-size="13" font-weight="700" fill="#e8cf7a" >اقرأ المزيد ←</text></svg>